<svg xmlns="http://www.w3.org/2000/svg" width="56" height="56" viewBox="0 0 56 56">
    <g fill="none" fill-rule="evenodd">
        <circle cx="28" cy="28" r="28" fill="#E30613"/>
        <g fill="#FFF" fill-rule="nonzero">
            <path d="M26.197 28.92c0-.762-.606-1.38-1.355-1.38h-1.41c-.748 0-1.355.618-1.355 1.38v9.608c0 .762.607 1.379 1.356 1.379h1.409c.749 0 1.355-.617 1.355-1.38V28.92zM20.12 32.273c0-.82-.653-1.484-1.458-1.484h-1.203c-.806 0-1.459.665-1.459 1.484v6.15c0 .82.653 1.484 1.459 1.484h1.203c.805 0 1.458-.664 1.458-1.484v-6.15zM32.172 25.251c0-.761-.607-1.379-1.356-1.379h-1.409c-.749 0-1.355.618-1.355 1.38v13.276c0 .762.606 1.379 1.355 1.379h1.409c.749 0 1.356-.617 1.356-1.38V25.252zM39.727 19.957l-2.643-3.45c-.228-.297-.552-.468-.89-.468-.337 0-.662.17-.89.468l-2.643 3.45c-.226.296-.282.62-.152.89.141.295.48.471.907.471l.713.002v17.247c0 .76.609 1.34 1.356 1.34h1.419c.747 0 1.345-.58 1.345-1.34V21.308l.717.01c.427 0 .77-.176.911-.47.13-.27.077-.595-.15-.891z"/>
        </g>
    </g>
</svg>
