<svg xmlns="http://www.w3.org/2000/svg" width="56" height="56" viewBox="0 0 56 56">
    <g fill="none" fill-rule="evenodd">
        <circle cx="28" cy="28" r="28" fill="#E30613"/>
        <path fill="#FFF" fill-rule="nonzero" d="M40.669 26.742a1.17 1.17 0 0 0-.098-1.686l-11.165-9.662a1.403 1.403 0 0 0-1.815.021L16.389 25.571a1.162 1.162 0 0 0-.054 1.683l.28.29c.466.48 1.22.537 1.682.127l.837-.741v10.855c0 .666.546 1.206 1.219 1.206h4.366c.673 0 1.219-.54 1.219-1.206v-7.594h5.57v7.594c-.01.666.472 1.205 1.145 1.205h4.627c.673 0 1.219-.54 1.219-1.205V27.082l.516.449c.285.247.883.049 1.336-.444l.318-.345z"/>
    </g>
</svg>
