<svg xmlns="http://www.w3.org/2000/svg" width="56" height="56" viewBox="0 0 56 56">
    <g fill="none" fill-rule="evenodd">
        <circle cx="28" cy="28" r="28" fill="#E30613"/>
        <g fill="#FFF" fill-rule="nonzero">
            <path d="M27.996 30.764l-9.543-3.003V32.776c0 2.319 4.274 4.198 9.546 4.198 5.272 0 9.547-1.88 9.547-4.198 0-.018-.006-.037-.006-.054V27.76l-9.544 3.003z"/>
            <path d="M12 24.309l3.41 1.246.29-.636 1.252-.109.18.19-1.076.26-.156.475s-2.428 5.188-2.072 7.726c0 0 1.516.924 3.03 0l.403-6.94v-.577l2.254-.52-.159.401-1.68.559.777.284 9.543 3.003 9.544-3.003 6.452-2.36-15.996-6.29L12 24.307z"/>
        </g>
    </g>
</svg>
