<svg width="94" height="94" viewBox="0 0 94 94" fill="none" xmlns="http://www.w3.org/2000/svg">
<path d="M55.2617 47C55.2617 51.5626 51.5626 55.2617 47 55.2617C42.4374 55.2617 38.7383 51.5626 38.7383 47C38.7383 42.4374 42.4374 38.7383 47 38.7383C51.5626 38.7383 55.2617 42.4374 55.2617 47Z" fill="#FAFF00"/>
<path d="M60.9531 22.0312H33.0469C26.9725 22.0312 22.0312 26.9725 22.0312 33.0469V60.9531C22.0312 67.0275 26.9725 71.9688 33.0469 71.9688H60.9531C67.0275 71.9688 71.9688 67.0275 71.9688 60.9531V33.0469C71.9688 26.9725 67.0275 22.0312 60.9531 22.0312ZM47 60.7695C39.4074 60.7695 33.2305 54.5926 33.2305 47C33.2305 39.4074 39.4074 33.2305 47 33.2305C54.5926 33.2305 60.7695 39.4074 60.7695 47C60.7695 54.5926 54.5926 60.7695 47 60.7695ZM62.7891 33.9648C61.268 33.9648 60.0352 32.732 60.0352 31.2109C60.0352 29.6898 61.268 28.457 62.7891 28.457C64.3102 28.457 65.543 29.6898 65.543 31.2109C65.543 32.732 64.3102 33.9648 62.7891 33.9648Z" fill="#FAFF00"/>
<path d="M69.2148 0H24.7852C11.1189 0 0 11.1189 0 24.7852V69.2148C0 82.8811 11.1189 94 24.7852 94H69.2148C82.8811 94 94 82.8811 94 69.2148V24.7852C94 11.1189 82.8811 0 69.2148 0ZM77.4766 60.9531C77.4766 70.064 70.064 77.4766 60.9531 77.4766H33.0469C23.936 77.4766 16.5234 70.064 16.5234 60.9531V33.0469C16.5234 23.936 23.936 16.5234 33.0469 16.5234H60.9531C70.064 16.5234 77.4766 23.936 77.4766 33.0469V60.9531Z" fill="#FAFF00"/>
</svg>
