<svg xmlns="http://www.w3.org/2000/svg" width="56" height="56" viewBox="0 0 56 56">
    <g fill="none" fill-rule="evenodd">
        <circle cx="28" cy="28" r="28" fill="#E30613"/>
        <g fill="#FFF" fill-rule="nonzero">
            <path d="M21.839 18.586l9.96-2.717-.527-1.065a1.404 1.404 0 0 0-1.88-.634l-8.917 4.416h1.364zM34.892 15.947c-.124 0-.247.017-.37.05l-2.34.64-7.147 1.949h11.647l-.438-1.604a1.4 1.4 0 0 0-1.352-1.035zM38.144 19.567H17.406a1.4 1.4 0 0 0-1.355 1.035 1.45 1.45 0 0 0-.051.367v15.62c0 .773.629 1.401 1.403 1.401H38.14c.774 0 1.403-.628 1.403-1.401v-3.912h-8.325a2.386 2.386 0 0 1-2.385-2.383v-3.118c0-.644.258-1.23.676-1.66a2.362 2.362 0 0 1 1.706-.72h8.328V20.97a1.399 1.399 0 0 0-1.4-1.402z"/>
            <path d="M40.529 26.136a1.402 1.402 0 0 0-.946-.367H31.22c-.775 0-1.403.628-1.403 1.402v3.12c0 .774.628 1.402 1.403 1.402H39.583c.16 0 .312-.028.455-.075a1.36 1.36 0 0 0 .49-.292c.281-.255.458-.625.458-1.035v-3.12c0-.41-.177-.78-.457-1.035zm-6.38 2.874c0 .387-.315.701-.702.701h-.466a.701.701 0 0 1-.702-.7v-.466a.71.71 0 0 1 .701-.7l.119-.001h.348c.387 0 .701.314.701.7v.466z"/>
        </g>
    </g>
</svg>
