<svg width="94" height="94" viewBox="0 0 94 94" fill="none" xmlns="http://www.w3.org/2000/svg">
<path d="M47.0508 37.5904C52.2978 37.5734 56.4768 33.3604 56.4578 28.1014C56.4368 22.8424 52.2508 18.6534 47.0018 18.6494C41.7088 18.6444 37.4818 22.9084 37.5228 28.2154C37.5618 33.4544 41.7878 37.6124 47.0508 37.5904Z" fill="#FAFF00"/>
<path d="M89 0H5C2.239 0 0 2.238 0 5V89C0 91.762 2.239 94 5 94H89C91.762 94 94 91.762 94 89V5C94 2.238 91.762 0 89 0ZM47.08 8.766C57.779 8.793 66.369 17.547 66.316 28.368C66.259 38.938 57.529 47.506 46.847 47.47C36.271 47.434 27.599 38.667 27.659 28.074C27.722 17.365 36.4 8.734 47.08 8.766ZM68.753 55.072C66.387 57.503 63.539 59.259 60.375 60.488C57.384 61.644 54.107 62.23 50.863 62.618C51.353 63.152 51.584 63.411 51.888 63.72C56.292 68.145 60.714 72.552 65.103 76.99C66.597 78.501 66.913 80.376 66.088 82.135C65.187 84.06 63.172 85.323 61.194 85.187C59.942 85.099 58.966 84.476 58.1 83.605C54.776 80.26 51.389 76.978 48.135 73.574C47.188 72.582 46.732 72.767 45.894 73.63C42.551 77.072 39.156 80.461 35.739 83.83C34.204 85.344 32.379 85.615 30.596 84.752C28.704 83.835 27.502 81.904 27.595 79.961C27.659 78.649 28.305 77.647 29.206 76.747C33.562 72.396 37.908 68.034 42.256 63.675C42.545 63.387 42.813 63.078 43.232 62.63C37.303 62.011 31.957 60.553 27.382 56.973C26.815 56.528 26.228 56.098 25.708 55.6C23.706 53.676 23.505 51.475 25.09 49.204C26.444 47.262 28.722 46.74 31.087 47.855C31.546 48.07 31.982 48.341 32.4 48.63C40.928 54.49 52.645 54.653 61.206 48.896C62.053 48.249 62.96 47.713 64.012 47.447C66.057 46.922 67.959 47.671 69.057 49.459C70.314 51.496 70.297 53.488 68.753 55.072Z" fill="#FAFF00"/>
</svg>
